<svg width="45" height="45" fill="none" xmlns="http://www.w3.org/2000/svg"><path d="M44.734 15.526c-.581-1.72-1.98-2.804-3.213-3.761-.659-.511-1.282-.994-1.641-1.468-.367-.483-.657-1.204-.963-1.968-.567-1.412-1.211-3.013-2.701-4.052-1.459-1.02-3.216-1.114-4.767-1.195-.872-.047-1.695-.091-2.322-.287-.575-.178-1.238-.593-1.94-1.032C25.862.937 24.361 0 22.498 0s-3.362.937-4.685 1.763c-.703.44-1.366.853-1.941 1.033-.627.195-1.451.239-2.324.286-1.55.083-3.306.176-4.766 1.195-1.49 1.04-2.133 2.64-2.7 4.052-.307.764-.598 1.485-.965 1.97-.36.475-.982.957-1.643 1.468-1.23.957-2.628 2.04-3.21 3.758-.565 1.67-.11 3.32.29 4.774.223.81.434 1.575.434 2.201 0 .627-.21 1.391-.434 2.202-.4 1.454-.855 3.103-.29 4.775.583 1.718 1.98 2.8 3.212 3.757.66.511 1.282.994 1.642 1.467.366.484.656 1.205.963 1.97.567 1.413 1.212 3.013 2.703 4.055 1.459 1.017 3.214 1.11 4.764 1.192.873.047 1.697.091 2.324.286.574.18 1.237.594 1.938 1.032 1.324.827 2.825 1.764 4.688 1.764 1.864 0 3.366-.937 4.69-1.764.701-.438 1.364-.852 1.939-1.032.626-.195 1.45-.239 2.323-.286 1.55-.082 3.306-.176 4.765-1.193 1.49-1.04 2.134-2.643 2.703-4.057.306-.763.596-1.485.96-1.965.36-.475.983-.958 1.642-1.468 1.233-.956 2.632-2.04 3.213-3.758.567-1.672.111-3.32-.29-4.776-.224-.81-.435-1.576-.435-2.202 0-.626.211-1.391.435-2.201.401-1.453.856-3.103.29-4.772zM40.83 25.699c.27.98.55 1.995.353 2.575-.22.65-1.104 1.335-1.959 1.998-.822.637-1.671 1.295-2.331 2.165-.67.882-1.069 1.875-1.454 2.834-.41 1.017-.796 1.978-1.37 2.379-.58.406-1.667.463-2.818.525-1.065.057-2.165.115-3.238.45-1.036.322-1.938.885-2.81 1.43-.985.615-1.914 1.195-2.704 1.195-.789 0-1.718-.58-2.701-1.193-.873-.545-1.775-1.11-2.81-1.431-1.074-.335-2.174-.394-3.239-.45-1.151-.061-2.238-.12-2.817-.524-.575-.401-.96-1.362-1.37-2.38-.387-.959-.786-1.952-1.457-2.835-.659-.869-1.508-1.528-2.33-2.165-.854-.662-1.738-1.348-1.958-1.997-.196-.581.083-1.596.353-2.577.266-.967.568-2.064.568-3.197 0-1.134-.302-2.23-.568-3.197-.27-.98-.55-1.994-.353-2.576.22-.65 1.103-1.334 1.957-1.996.822-.639 1.673-1.298 2.33-2.166.672-.884 1.072-1.878 1.459-2.838.408-1.016.794-1.976 1.366-2.375.582-.407 1.67-.465 2.82-.527 1.065-.058 2.165-.117 3.237-.45 1.037-.322 1.94-.886 2.813-1.43.984-.617 1.912-1.196 2.7-1.196.79 0 1.718.58 2.702 1.193.874.546 1.776 1.11 2.812 1.43 1.074.335 2.173.395 3.236.45 1.152.062 2.24.12 2.82.528.574.4.959 1.36 1.368 2.376.386.96.786 1.953 1.457 2.837.659.867 1.508 1.526 2.33 2.164.854.662 1.738 1.348 1.959 1.999.197.58-.084 1.594-.353 2.574-.268.968-.57 2.065-.57 3.199s.302 2.231.57 3.199z" fill="#083C6E"/><path d="M30.936 22.501c0 4.653-3.784 8.437-8.437 8.437-4.652 0-8.437-3.784-8.437-8.437 0-4.652 3.785-8.437 8.437-8.437h1.875v-3.75H22.5c-6.72 0-12.187 5.468-12.187 12.187 0 6.72 5.468 12.187 12.187 12.187 6.72 0 12.187-5.467 12.187-12.187v-1.875h-3.75v1.875z" fill="#083C6E"/><path d="M20.624 17.975l-2.65 2.651 4.525 4.526 10.151-10.15L30 12.35l-7.5 7.5-1.875-1.876z" fill="#083C6E"/></svg>