<svg width="50" height="50" fill="none" xmlns="http://www.w3.org/2000/svg"><path d="M37.763 29.727a6.31 6.31 0 00-6.303 6.302 6.31 6.31 0 006.303 6.303 6.31 6.31 0 006.302-6.303 6.31 6.31 0 00-6.302-6.302zm0 9.454a3.155 3.155 0 01-3.152-3.152 3.155 3.155 0 013.152-3.15 3.154 3.154 0 013.15 3.15 3.154 3.154 0 01-3.15 3.152zm-21.534-9.454a6.31 6.31 0 00-6.303 6.302 6.31 6.31 0 006.303 6.303 6.31 6.31 0 006.303-6.303 6.31 6.31 0 00-6.303-6.302zm0 9.454a3.155 3.155 0 01-3.151-3.152 3.155 3.155 0 013.151-3.15 3.155 3.155 0 013.151 3.15 3.154 3.154 0 01-3.151 3.152zm25.778-27.494a1.577 1.577 0 00-1.408-.868H32.3v3.152h7.327l4.29 8.533 2.817-1.416-4.727-9.401z" fill="#083C6E"/><path d="M33.036 34.506H21.113v3.152h11.923v-3.152zm-21.534 0H6.04a1.575 1.575 0 100 3.151h5.462a1.575 1.575 0 100-3.15zm38.168-9.632l-3.1-3.992a1.574 1.574 0 00-1.244-.61h-11.45V9.245c0-.87-.705-1.576-1.575-1.576H6.04a1.575 1.575 0 100 3.151h24.685v11.03c0 .87.705 1.575 1.575 1.575h12.254l2.295 2.956v8.126h-4.36a1.575 1.575 0 100 3.151h5.935c.87 0 1.576-.705 1.576-1.575V25.84c0-.35-.117-.69-.33-.966zm-38.273 1.649H4.15a1.575 1.575 0 100 3.151h7.248a1.576 1.576 0 100-3.15zm3.624-6.197H1.576a1.576 1.576 0 100 3.151H15.02a1.576 1.576 0 100-3.151z" fill="#083C6E"/><path d="M17.595 14.128H4.149a1.575 1.575 0 100 3.151h13.446a1.575 1.575 0 100-3.15z" fill="#083C6E"/></svg>