<svg width="135" height="93" fill="none" xmlns="http://www.w3.org/2000/svg"><path d="M11.66 38.268c3.01-1.043 5.85-1.35 8.52-.921 2.67.428 4.996 1.53 6.977 3.305 2 1.738 3.494 4.035 4.484 6.892.98 2.83 1.228 5.559.741 8.188-.459 2.62-1.618 4.93-3.477 6.928-1.833 1.988-4.24 3.5-7.224 4.533l-10.7 3.707L.962 41.975l10.699-3.707zm7.46 22.982c2.631-.911 4.427-2.349 5.387-4.312s.979-4.277.056-6.942c-.923-2.664-2.374-4.484-4.353-5.46-1.978-.976-4.283-1.008-6.914-.097l-3.295 1.142 5.825 16.81 3.295-1.141zm26.413-28.395l2.027 5.85 9.316-3.227 1.885 5.439-9.317 3.228 2.199 6.345 10.537-3.65 1.955 5.644-17.493 6.061L36.621 29.62l17.493-6.06 1.956 5.644-10.537 3.65zm39.654 12.659c-2.088.723-4.078 1.028-5.97.915-1.893-.114-3.574-.67-5.044-1.668-1.443-1.008-2.52-2.45-3.23-4.327l7.404-2.565c.48 1.034 1.13 1.731 1.955 2.092.814.333 1.722.326 2.726-.022 1.03-.357 1.763-.872 2.198-1.546.426-.701.49-1.477.196-2.329-.248-.714-.696-1.22-1.346-1.518-.623-.307-1.34-.49-2.15-.548-.782-.067-1.877-.072-3.285-.015-2.044.062-3.75.007-5.116-.166-1.366-.173-2.664-.677-3.895-1.512-1.231-.834-2.16-2.159-2.789-3.971-.933-2.692-.698-5.127.704-7.305 1.393-2.206 3.635-3.844 6.727-4.915 3.146-1.09 5.949-1.2 8.407-.329 2.45.844 4.213 2.602 5.29 5.274l-7.526 2.608c-.378-.915-.969-1.526-1.773-1.831-.815-.334-1.71-.331-2.686.007-.841.291-1.438.76-1.792 1.405-.363.618-.397 1.353-.102 2.205.324.934 1.01 1.511 2.059 1.733 1.049.22 2.6.314 4.653.28 2.063-.008 3.764.08 5.103.262 1.367.173 2.66.663 3.882 1.47 1.221.808 2.132 2.077 2.731 3.807.571 1.648.67 3.291.295 4.928-.347 1.628-1.17 3.113-2.466 4.455-1.297 1.341-3.017 2.383-5.16 3.126zm37.256-13.231l-14.026-9.447 4.425 12.773-6.957 2.41L95.864 9.094l6.957-2.41 4.396 12.691 5.123-15.989 8.177-2.833-6.154 18.008 16.582 10.776-8.502 2.946zM25.233 83.38c.284.821.242 1.603-.128 2.344-.364.729-1.114 1.29-2.252 1.684l-1.873.65 1.428 4.121-1.273.441-3.42-9.872 3.146-1.09c1.1-.381 2.028-.401 2.783-.06.765.338 1.294.932 1.589 1.782zm-2.748 2.966c.709-.245 1.177-.582 1.405-1.01.227-.428.241-.93.042-1.506-.422-1.218-1.323-1.588-2.703-1.11l-1.874.65 1.257 3.626 1.873-.65zm35.627-7.711l3.412-1.182.363 1.048-4.685 1.623-3.42-9.872 1.273-.44 3.057 8.823zm30.92-20.595l2.164 6.246c.304.878.74 1.457 1.306 1.736.577.276 1.242.284 1.997.022.746-.258 1.255-.673 1.528-1.243.281-.573.27-1.3-.034-2.177l-2.164-6.247 1.272-.44 2.16 6.232c.284.821.361 1.572.231 2.251a3.27 3.27 0 01-.896 1.707c-.456.464-1.028.816-1.718 1.055-.69.24-1.362.319-2.016.239a3.291 3.291 0 01-1.747-.791c-.513-.457-.912-1.096-1.197-1.918L87.76 58.48l1.273-.44zm42.706-3.629c-.643.223-1.26.31-1.852.261-.585-.061-1.092-.245-1.522-.551a2.67 2.67 0 01-.943-1.276l1.356-.47c.207.447.53.774.967.982.444.196.982.183 1.616-.036.606-.21 1.03-.526 1.27-.948.246-.434.286-.892.119-1.374-.131-.377-.34-.649-.627-.814a2.079 2.079 0 00-.955-.271c-.35-.017-.811-.005-1.382.034-.702.053-1.279.063-1.729.028a2.736 2.736 0 01-1.268-.449c-.398-.275-.703-.719-.916-1.333a2.721 2.721 0 01-.09-1.57 2.82 2.82 0 01.799-1.356c.416-.398.941-.707 1.575-.926.913-.317 1.739-.344 2.477-.081.748.259 1.292.758 1.631 1.497l-1.398.484c-.178-.361-.488-.624-.931-.788-.446-.173-.954-.161-1.523.036-.531.184-.915.476-1.153.876-.241.39-.274.835-.101 1.335.124.36.324.618.598.777.284.155.591.244.923.267.337.01.798-.002 1.382-.035.705-.043 1.285-.043 1.738 0 .451.035.88.188 1.287.46.404.261.714.704.93 1.327.167.482.198.978.093 1.49-.104.513-.358.986-.76 1.422-.403.436-.939.77-1.611 1.002z" fill="#fff"/><path d="M1.142 54.84l14.62-5.065 2.007 5.794-14.62 5.065-2.007-5.794z" fill="#fff"/></svg>