<svg width="135" height="93" viewBox="0 0 135 93" fill="none" xmlns="http://www.w3.org/2000/svg">
<path d="M11.6596 38.2682C14.6701 37.2252 17.5102 36.9181 20.18 37.3468C22.8499 37.7755 25.1757 38.8772 27.1575 40.6519C29.1569 42.3897 30.6515 44.687 31.6413 47.5438C32.6216 50.3731 32.8686 53.1026 32.3824 55.7324C31.9233 58.3527 30.764 60.6619 28.9045 62.6598C27.0722 64.6484 24.6644 66.1595 21.681 67.1931L10.9816 70.9001L0.960198 41.9752L11.6596 38.2682ZM19.1207 61.25C21.7515 60.3386 23.547 58.9012 24.5071 56.9379C25.4673 54.9746 25.4858 52.6608 24.5626 49.9963C23.6395 47.3318 22.1887 45.5116 20.2102 44.5356C18.2317 43.5597 15.9271 43.5275 13.2963 44.439L10.0011 45.5807L15.8255 62.3917L19.1207 61.25Z" fill="white"/>
<path d="M45.533 32.8548L47.5601 38.7057L56.8763 35.478L58.7607 40.9169L49.4445 44.1446L51.6429 50.4899L62.1796 46.8394L64.1353 52.4842L46.642 58.545L36.6206 29.6201L54.1139 23.5594L56.0696 29.2042L45.533 32.8548Z" fill="white"/>
<path d="M85.1872 45.5136C83.0988 46.2371 81.1085 46.5421 79.2162 46.4286C77.3238 46.3151 75.6427 45.7591 74.1729 44.7608C72.7302 43.7531 71.6534 42.311 70.9425 40.4344L78.3466 37.8691C78.8263 38.9029 79.4779 39.6001 80.3016 39.9608C81.1157 40.2941 82.0245 40.2869 83.028 39.9392C84.0586 39.5821 84.7914 39.0667 85.2263 38.393C85.6516 37.6919 85.7168 36.9155 85.4218 36.064C85.1743 35.3498 84.7256 34.8438 84.0756 34.5459C83.4528 34.2387 82.7364 34.0561 81.9266 33.9983C81.1439 33.9311 80.0485 33.926 78.6406 33.983C76.5965 34.0452 74.8914 33.9898 73.5253 33.817C72.1592 33.6442 70.8607 33.1404 69.6297 32.3054C68.3988 31.4705 67.4692 30.1465 66.8411 28.3336C65.9084 25.6416 66.1432 23.2067 67.5454 21.0287C68.9381 18.8233 71.1803 17.185 74.2722 16.1138C77.4182 15.0238 80.2206 14.9143 82.6791 15.7854C85.1282 16.6291 86.8916 18.3871 87.9694 21.0595L80.4432 23.6671C80.0654 22.7519 79.4742 22.1415 78.6696 21.8357C77.8554 21.5024 76.9602 21.5049 75.9838 21.8432C75.143 22.1345 74.5459 22.6029 74.1924 23.2484C73.8294 23.8665 73.7953 24.6012 74.0904 25.4528C74.414 26.3867 75.1001 26.9643 76.1488 27.1855C77.1975 27.4068 78.7487 27.5 80.8023 27.4654C82.8655 27.4582 84.5665 27.5457 85.9055 27.7279C87.2715 27.9007 88.5653 28.3908 89.7868 29.1983C91.0082 30.0058 91.9187 31.2748 92.5183 33.0053C93.0893 34.6535 93.1876 36.2962 92.8132 37.9335C92.4659 39.5613 91.6437 41.0461 90.3466 42.3877C89.0496 43.7293 87.3298 44.7713 85.1872 45.5136Z" fill="white"/>
<path d="M122.443 32.2828L108.417 22.8361L112.842 35.6092L105.885 38.0194L95.8639 9.09449L102.821 6.68427L107.217 19.375L112.34 3.38607L120.517 0.553006L114.363 18.5608L130.945 29.3369L122.443 32.2828Z" fill="white"/>
<path d="M25.2325 83.3797C25.5172 84.2012 25.4747 84.9827 25.105 85.7242C24.7414 86.453 23.9909 87.0144 22.8535 87.4085L20.9796 88.0577L22.4076 92.1794L21.135 92.6203L17.7147 82.7482L20.8612 81.658C21.9613 81.2769 22.889 81.2569 23.6441 81.5981C24.4086 81.936 24.9381 82.5299 25.2325 83.3797ZM22.4855 86.3462C23.194 86.1007 23.6622 85.764 23.8898 85.3362C24.1175 84.9083 24.1315 84.4063 23.932 83.8303C23.51 82.6123 22.6091 82.2422 21.2293 82.7203L19.3553 83.3695L20.6116 86.9955L22.4855 86.3462Z" fill="white"/>
<path d="M58.1119 78.6352L61.5241 77.453L61.8872 78.5011L57.2024 80.1242L53.7821 70.2521L55.0547 69.8112L58.1119 78.6352Z" fill="white"/>
<path d="M89.0319 58.0394L91.196 64.2856C91.5002 65.1637 91.9357 65.7426 92.5025 66.0221C93.0786 66.2984 93.7442 66.3058 94.4993 66.0442C95.2452 65.7857 95.7543 65.3714 96.0266 64.8011C96.3082 64.2277 96.2969 63.5018 95.9927 62.6237L93.8286 56.3775L95.1012 55.9366L97.2603 62.1686C97.545 62.9901 97.6223 63.7407 97.4922 64.4203C97.359 65.0904 97.0601 65.6593 96.5956 66.127C96.1404 66.5914 95.5678 66.9431 94.8779 67.1821C94.188 67.4211 93.516 67.5006 92.8617 67.4206C92.2168 67.3373 91.6347 67.0737 91.1153 66.6296C90.6021 66.1729 90.2031 65.5338 89.9185 64.7123L87.7593 58.4803L89.0319 58.0394Z" fill="white"/>
<path d="M131.738 54.4113C131.095 54.6342 130.478 54.7212 129.886 54.6722C129.301 54.6106 128.794 54.4268 128.364 54.1209C127.931 53.8056 127.617 53.3804 127.421 52.8454L128.777 52.3754C128.984 52.822 129.307 53.1492 129.744 53.3572C130.188 53.5525 130.726 53.5404 131.36 53.3207C131.966 53.1108 132.39 52.795 132.63 52.3733C132.876 51.9389 132.916 51.481 132.749 50.9994C132.618 50.6217 132.409 50.3504 132.122 50.1854C131.835 50.0204 131.517 49.9298 131.167 49.9136C130.817 49.8975 130.356 49.909 129.785 49.9483C129.083 50.0012 128.506 50.0105 128.056 49.9762C127.615 49.9386 127.192 49.7889 126.788 49.527C126.39 49.2524 126.085 48.8083 125.872 48.1945C125.686 47.6563 125.656 47.1326 125.782 46.6234C125.909 46.1143 126.175 45.6624 126.581 45.2679C126.997 44.87 127.522 44.5613 128.156 44.3417C129.069 44.0251 129.895 43.9981 130.633 44.2605C131.381 44.5197 131.925 45.0188 132.264 45.7578L130.866 46.2423C130.688 45.8807 130.378 45.6181 129.935 45.4543C129.489 45.2811 128.981 45.293 128.412 45.49C127.881 45.6742 127.497 45.966 127.259 46.3656C127.018 46.7557 126.985 47.201 127.158 47.7014C127.282 48.0602 127.482 48.319 127.756 48.4778C128.04 48.6334 128.347 48.7225 128.679 48.7451C129.016 48.755 129.477 48.7435 130.061 48.7104C130.766 48.667 131.346 48.6671 131.799 48.7109C132.25 48.7452 132.679 48.898 133.086 49.1693C133.49 49.4313 133.8 49.8738 134.016 50.497C134.183 50.9786 134.214 51.4754 134.109 51.9875C134.005 52.4997 133.751 52.9735 133.349 53.4091C132.946 53.8447 132.41 54.1788 131.738 54.4113Z" fill="white"/>
<path d="M1.14169 54.8399L15.7618 49.7746L17.7693 55.5688L3.14918 60.6342L1.14169 54.8399Z" fill="white"/>
</svg>
